<svg width="32" height="32" viewBox="0 0 32 32" fill="none" xmlns="http://www.w3.org/2000/svg">
<path fill-rule="evenodd" clip-rule="evenodd" d="M16.816 1.6168C16.3345 1.24232 15.6603 1.24232 15.1788 1.6168L3.17881 10.9501C2.85403 11.2027 2.66406 11.5911 2.66406 12.0026V26.6693C2.66406 27.7301 3.08549 28.7475 3.83564 29.4977C4.58578 30.2478 5.6032 30.6693 6.66406 30.6693H25.3307C26.3916 30.6693 27.409 30.2478 28.1592 29.4977C28.9093 28.7476 29.3307 27.7301 29.3307 26.6693V12.0026C29.3307 11.5911 29.1408 11.2027 28.816 10.9501L16.816 1.6168ZM21.3307 28.0026H25.3307C25.6843 28.0026 26.0235 27.8621 26.2735 27.6121C26.5236 27.362 26.6641 27.0229 26.6641 26.6693V12.6547L15.9974 4.35842L5.33073 12.6547V26.6693C5.33073 27.0229 5.4712 27.362 5.72125 27.6121C5.9713 27.8621 6.31044 28.0026 6.66406 28.0026H10.6641V16.0026C10.6641 15.2662 11.261 14.6693 11.9974 14.6693H19.9974C20.7338 14.6693 21.3307 15.2662 21.3307 16.0026V28.0026ZM13.3307 28.0026V17.3359H18.6641V28.0026H13.3307Z" fill="#2D3648"/>
</svg>
