<svg width="25" height="18" viewBox="0 0 25 18" fill="none" xmlns="http://www.w3.org/2000/svg">
<path d="M1.25 0C0.559644 0 0 0.805887 0 1.8C0 2.79411 0.559644 3.6 1.25 3.6H23.75C24.4404 3.6 25 2.79411 25 1.8C25 0.805887 24.4404 0 23.75 0H1.25Z" fill="#2D3648"/>
<path d="M1.25 7.2C0.559644 7.2 0 8.00589 0 9C0 9.99411 0.559644 10.8 1.25 10.8H23.75C24.4404 10.8 25 9.99411 25 9C25 8.00589 24.4404 7.2 23.75 7.2H1.25Z" fill="#2D3648"/>
<path d="M0 16.2C0 15.2059 0.559644 14.4 1.25 14.4H23.75C24.4404 14.4 25 15.2059 25 16.2C25 17.1941 24.4404 18 23.75 18H1.25C0.559644 18 0 17.1941 0 16.2Z" fill="#2D3648"/>
</svg>
